<svg xmlns="http://www.w3.org/2000/svg" xmlns:xlink="http://www.w3.org/1999/xlink" width="394" zoomAndPan="magnify" viewBox="0 0 295.5 320.250004" height="427" preserveAspectRatio="xMidYMid meet" version="1.0"><defs><clipPath id="d05b6b110a"><path d="M 168 97 L 288.519531 97 L 288.519531 189 L 168 189 Z M 168 97 " clip-rule="nonzero"/></clipPath><clipPath id="04b9ff0c54"><path d="M 6.429688 95 L 191 95 L 191 282 L 6.429688 282 Z M 6.429688 95 " clip-rule="nonzero"/></clipPath></defs><g clip-path="url(#d05b6b110a)"><path fill="#268fcd" d="M 288.378906 140.972656 C 288.378906 102.007812 258.203125 90.445312 225.230469 100.378906 C 204.242188 106.699219 184.914062 116.847656 168.058594 130.015625 C 183.875 147.066406 196.800781 166.835938 206.058594 188.550781 L 240.804688 188.550781 C 266.96875 188.550781 288.378906 167.140625 288.378906 140.972656 Z M 288.378906 140.972656 " fill-opacity="1" fill-rule="evenodd"/></g><g clip-path="url(#04b9ff0c54)"><path fill="#94d16a" d="M 185.921875 214.726562 C 177.988281 189.957031 164.695312 167.578125 147.40625 148.96875 C 141.042969 142.121094 134.136719 135.777344 126.753906 130.015625 C 100.058594 109.160156 45.941406 77.082031 17.757812 110.25 C 10.703125 118.554688 6.429688 129.289062 6.429688 140.972656 C 6.429688 167.140625 27.839844 188.550781 54.007812 188.550781 L 99.832031 188.550781 L 99.832031 234.375 C 99.832031 239.011719 100.503906 243.496094 101.757812 247.738281 C 107.566406 267.453125 125.878906 281.949219 147.40625 281.949219 C 190.65625 281.949219 196.664062 248.261719 185.921875 214.726562 Z M 185.921875 214.726562 " fill-opacity="1" fill-rule="evenodd"/></g><path fill="#268fcd" d="M 147.40625 45.882812 C 157.722656 45.882812 166.085938 54.246094 166.085938 64.5625 C 166.085938 74.878906 157.722656 83.246094 147.40625 83.246094 C 137.089844 83.246094 128.722656 74.878906 128.722656 64.5625 C 128.722656 54.246094 137.089844 45.882812 147.40625 45.882812 Z M 99.832031 81.644531 C 117.058594 89.121094 133.050781 98.914062 147.40625 110.632812 C 161.761719 98.914062 177.75 89.121094 194.980469 81.644531 L 194.980469 47.578125 C 194.980469 21.410156 173.570312 0 147.40625 0 C 121.242188 0 99.832031 21.410156 99.832031 47.578125 Z M 99.832031 81.644531 " fill-opacity="1" fill-rule="evenodd"/></svg>