<svg xmlns="http://www.w3.org/2000/svg" xmlns:xlink="http://www.w3.org/1999/xlink" width="1154" zoomAndPan="magnify" viewBox="0 0 865.5 330.749987" height="441" preserveAspectRatio="xMidYMid meet" version="1.0"><defs><g/><clipPath id="0ce8478c1c"><path d="M 301 97 L 422.097656 97 L 422.097656 189 L 301 189 Z M 301 97 " clip-rule="nonzero"/></clipPath><clipPath id="842ff2439f"><path d="M 140.0625 96 L 325 96 L 325 282.039062 L 140.0625 282.039062 Z M 140.0625 96 " clip-rule="nonzero"/></clipPath></defs><g clip-path="url(#0ce8478c1c)"><path fill="#268fcd" d="M 422.457031 141.195312 C 422.457031 102.167969 392.230469 90.585938 359.203125 100.535156 C 338.183594 106.871094 318.828125 117.035156 301.941406 130.21875 C 317.785156 147.300781 330.730469 167.097656 340.003906 188.847656 L 374.804688 188.847656 C 401.011719 188.847656 422.457031 167.402344 422.457031 141.195312 Z M 422.457031 141.195312 " fill-opacity="1" fill-rule="evenodd"/></g><g clip-path="url(#842ff2439f)"><path fill="#94d16a" d="M 319.832031 215.066406 C 311.890625 190.257812 298.578125 167.84375 281.257812 149.203125 C 274.882812 142.347656 267.96875 135.992188 260.574219 130.21875 C 233.835938 109.335938 179.636719 77.203125 151.40625 110.421875 C 144.339844 118.738281 140.0625 129.496094 140.0625 141.195312 C 140.0625 167.402344 161.503906 188.847656 187.710938 188.847656 L 233.609375 188.847656 L 233.609375 234.742188 C 233.609375 239.390625 234.28125 243.878906 235.535156 248.132812 C 241.355469 267.878906 259.695312 282.394531 281.257812 282.394531 C 324.574219 282.394531 330.59375 248.65625 319.832031 215.066406 Z M 319.832031 215.066406 " fill-opacity="1" fill-rule="evenodd"/></g><path fill="#268fcd" d="M 281.257812 45.957031 C 291.59375 45.957031 299.96875 54.332031 299.96875 64.664062 C 299.96875 75 291.59375 83.375 281.257812 83.375 C 270.925781 83.375 262.546875 75 262.546875 64.664062 C 262.546875 54.332031 270.925781 45.957031 281.257812 45.957031 Z M 233.609375 81.773438 C 250.863281 89.261719 266.878906 99.070312 281.257812 110.804688 C 295.636719 99.070312 311.652344 89.261719 328.910156 81.773438 L 328.910156 47.652344 C 328.910156 21.441406 307.464844 0 281.257812 0 C 255.050781 0 233.609375 21.441406 233.609375 47.652344 Z M 233.609375 81.773438 " fill-opacity="1" fill-rule="evenodd"/><g fill="#169d53" fill-opacity="1"><g transform="translate(479.381482, 165.319578)"><g><path d="M 6.15625 -51.328125 L 45.046875 -51.328125 C 46.535156 -51.328125 47.628906 -51.148438 48.328125 -50.796875 C 49.023438 -50.453125 49.488281 -49.90625 49.71875 -49.15625 C 49.957031 -48.414062 50.078125 -47.4375 50.078125 -46.21875 C 50.078125 -45.007812 49.957031 -44.046875 49.71875 -43.328125 C 49.488281 -42.609375 49.09375 -42.109375 48.53125 -41.828125 C 47.695312 -41.398438 46.507812 -41.1875 44.96875 -41.1875 L 31.609375 -41.1875 L 31.609375 -6.015625 C 31.609375 -4.941406 31.570312 -4.148438 31.5 -3.640625 C 31.4375 -3.128906 31.226562 -2.535156 30.875 -1.859375 C 30.53125 -1.179688 29.910156 -0.703125 29.015625 -0.421875 C 28.128906 -0.140625 26.960938 0 25.515625 0 C 24.078125 0 22.925781 -0.140625 22.0625 -0.421875 C 21.195312 -0.703125 20.585938 -1.179688 20.234375 -1.859375 C 19.890625 -2.535156 19.679688 -3.140625 19.609375 -3.671875 C 19.546875 -4.203125 19.515625 -5.003906 19.515625 -6.078125 L 19.515625 -41.1875 L 6.078125 -41.1875 C 4.585938 -41.1875 3.492188 -41.363281 2.796875 -41.71875 C 2.097656 -42.070312 1.628906 -42.617188 1.390625 -43.359375 C 1.160156 -44.109375 1.046875 -45.085938 1.046875 -46.296875 C 1.046875 -47.503906 1.160156 -48.46875 1.390625 -49.1875 C 1.628906 -49.914062 2.03125 -50.421875 2.59375 -50.703125 C 3.425781 -51.117188 4.613281 -51.328125 6.15625 -51.328125 Z M 6.15625 -51.328125 "/></g></g></g><g fill="#169d53" fill-opacity="1"><g transform="translate(530.510042, 165.319578)"><g><path d="M 34.46875 -49.375 C 34.84375 -50.070312 35.472656 -50.5625 36.359375 -50.84375 C 37.253906 -51.125 38.375 -51.265625 39.71875 -51.265625 C 41.070312 -51.265625 42.144531 -51.144531 42.9375 -50.90625 C 43.726562 -50.675781 44.332031 -50.394531 44.75 -50.0625 C 45.175781 -49.738281 45.503906 -49.273438 45.734375 -48.671875 C 45.972656 -47.878906 46.09375 -46.671875 46.09375 -45.046875 L 46.09375 -6.21875 C 46.09375 -5.144531 46.054688 -4.335938 45.984375 -3.796875 C 45.910156 -3.265625 45.6875 -2.648438 45.3125 -1.953125 C 44.664062 -0.691406 42.847656 -0.0625 39.859375 -0.0625 C 36.597656 -0.0625 34.6875 -0.925781 34.125 -2.65625 C 33.84375 -3.445312 33.703125 -4.660156 33.703125 -6.296875 L 33.703125 -20.484375 L 15.171875 -20.484375 L 15.171875 -6.21875 C 15.171875 -5.144531 15.132812 -4.335938 15.0625 -3.796875 C 15 -3.265625 14.78125 -2.648438 14.40625 -1.953125 C 13.75 -0.691406 11.929688 -0.0625 8.953125 -0.0625 C 5.691406 -0.0625 3.78125 -0.925781 3.21875 -2.65625 C 2.9375 -3.445312 2.796875 -4.660156 2.796875 -6.296875 L 2.796875 -45.109375 C 2.796875 -46.179688 2.828125 -46.984375 2.890625 -47.515625 C 2.960938 -48.054688 3.1875 -48.675781 3.5625 -49.375 C 4.21875 -50.632812 6.035156 -51.265625 9.015625 -51.265625 C 12.285156 -51.265625 14.222656 -50.398438 14.828125 -48.671875 C 15.054688 -47.878906 15.171875 -46.671875 15.171875 -45.046875 L 15.171875 -30.765625 L 33.703125 -30.765625 L 33.703125 -45.109375 C 33.703125 -46.179688 33.738281 -46.984375 33.8125 -47.515625 C 33.882812 -48.054688 34.101562 -48.675781 34.46875 -49.375 Z M 34.46875 -49.375 "/></g></g></g><g fill="#169d53" fill-opacity="1"><g transform="translate(579.40041, 165.319578)"><g><path d="M 26.859375 -51.890625 C 33.753906 -51.890625 39.742188 -49.394531 44.828125 -44.40625 C 49.910156 -39.414062 52.453125 -33.222656 52.453125 -25.828125 C 52.453125 -18.441406 50.023438 -12.148438 45.171875 -6.953125 C 40.328125 -1.753906 34.359375 0.84375 27.265625 0.84375 C 20.179688 0.84375 14.15625 -1.71875 9.1875 -6.84375 C 4.226562 -11.976562 1.75 -18.085938 1.75 -25.171875 C 1.75 -29.046875 2.445312 -32.671875 3.84375 -36.046875 C 5.238281 -39.429688 7.101562 -42.265625 9.4375 -44.546875 C 11.769531 -46.835938 14.453125 -48.632812 17.484375 -49.9375 C 20.515625 -51.238281 23.640625 -51.890625 26.859375 -51.890625 Z M 14.125 -25.515625 C 14.125 -21.367188 15.460938 -18.003906 18.140625 -15.421875 C 20.828125 -12.835938 23.820312 -11.546875 27.125 -11.546875 C 30.4375 -11.546875 33.421875 -12.800781 36.078125 -15.3125 C 38.742188 -17.832031 40.078125 -21.210938 40.078125 -25.453125 C 40.078125 -29.703125 38.734375 -33.109375 36.046875 -35.671875 C 33.367188 -38.234375 30.375 -39.515625 27.0625 -39.515625 C 23.75 -39.515625 20.765625 -38.21875 18.109375 -35.625 C 15.453125 -33.039062 14.125 -29.671875 14.125 -25.515625 Z M 14.125 -25.515625 "/></g></g></g><g fill="#169d53" fill-opacity="1"><g transform="translate(633.606477, 165.319578)"><g><path d="M 6.15625 -51.328125 L 45.046875 -51.328125 C 46.535156 -51.328125 47.628906 -51.148438 48.328125 -50.796875 C 49.023438 -50.453125 49.488281 -49.90625 49.71875 -49.15625 C 49.957031 -48.414062 50.078125 -47.4375 50.078125 -46.21875 C 50.078125 -45.007812 49.957031 -44.046875 49.71875 -43.328125 C 49.488281 -42.609375 49.09375 -42.109375 48.53125 -41.828125 C 47.695312 -41.398438 46.507812 -41.1875 44.96875 -41.1875 L 31.609375 -41.1875 L 31.609375 -6.015625 C 31.609375 -4.941406 31.570312 -4.148438 31.5 -3.640625 C 31.4375 -3.128906 31.226562 -2.535156 30.875 -1.859375 C 30.53125 -1.179688 29.910156 -0.703125 29.015625 -0.421875 C 28.128906 -0.140625 26.960938 0 25.515625 0 C 24.078125 0 22.925781 -0.140625 22.0625 -0.421875 C 21.195312 -0.703125 20.585938 -1.179688 20.234375 -1.859375 C 19.890625 -2.535156 19.679688 -3.140625 19.609375 -3.671875 C 19.546875 -4.203125 19.515625 -5.003906 19.515625 -6.078125 L 19.515625 -41.1875 L 6.078125 -41.1875 C 4.585938 -41.1875 3.492188 -41.363281 2.796875 -41.71875 C 2.097656 -42.070312 1.628906 -42.617188 1.390625 -43.359375 C 1.160156 -44.109375 1.046875 -45.085938 1.046875 -46.296875 C 1.046875 -47.503906 1.160156 -48.46875 1.390625 -49.1875 C 1.628906 -49.914062 2.03125 -50.421875 2.59375 -50.703125 C 3.425781 -51.117188 4.613281 -51.328125 6.15625 -51.328125 Z M 6.15625 -51.328125 "/></g></g></g><g fill="#169d53" fill-opacity="1"><g transform="translate(684.735036, 165.319578)"><g><path d="M 6.15625 -51.328125 L 45.046875 -51.328125 C 46.535156 -51.328125 47.628906 -51.148438 48.328125 -50.796875 C 49.023438 -50.453125 49.488281 -49.90625 49.71875 -49.15625 C 49.957031 -48.414062 50.078125 -47.4375 50.078125 -46.21875 C 50.078125 -45.007812 49.957031 -44.046875 49.71875 -43.328125 C 49.488281 -42.609375 49.09375 -42.109375 48.53125 -41.828125 C 47.695312 -41.398438 46.507812 -41.1875 44.96875 -41.1875 L 31.609375 -41.1875 L 31.609375 -6.015625 C 31.609375 -4.941406 31.570312 -4.148438 31.5 -3.640625 C 31.4375 -3.128906 31.226562 -2.535156 30.875 -1.859375 C 30.53125 -1.179688 29.910156 -0.703125 29.015625 -0.421875 C 28.128906 -0.140625 26.960938 0 25.515625 0 C 24.078125 0 22.925781 -0.140625 22.0625 -0.421875 C 21.195312 -0.703125 20.585938 -1.179688 20.234375 -1.859375 C 19.890625 -2.535156 19.679688 -3.140625 19.609375 -3.671875 C 19.546875 -4.203125 19.515625 -5.003906 19.515625 -6.078125 L 19.515625 -41.1875 L 6.078125 -41.1875 C 4.585938 -41.1875 3.492188 -41.363281 2.796875 -41.71875 C 2.097656 -42.070312 1.628906 -42.617188 1.390625 -43.359375 C 1.160156 -44.109375 1.046875 -45.085938 1.046875 -46.296875 C 1.046875 -47.503906 1.160156 -48.46875 1.390625 -49.1875 C 1.628906 -49.914062 2.03125 -50.421875 2.59375 -50.703125 C 3.425781 -51.117188 4.613281 -51.328125 6.15625 -51.328125 Z M 6.15625 -51.328125 "/></g></g></g><g fill="#169d53" fill-opacity="1"><g transform="translate(735.863607, 165.319578)"><g><path d="M 2.796875 -45.109375 C 2.796875 -46.179688 2.828125 -46.984375 2.890625 -47.515625 C 2.960938 -48.054688 3.1875 -48.675781 3.5625 -49.375 C 4.21875 -50.632812 6.035156 -51.265625 9.015625 -51.265625 C 12.285156 -51.265625 14.222656 -50.398438 14.828125 -48.671875 C 15.054688 -47.878906 15.171875 -46.671875 15.171875 -45.046875 L 15.171875 -6.15625 C 15.171875 -5.03125 15.132812 -4.210938 15.0625 -3.703125 C 15 -3.191406 14.78125 -2.585938 14.40625 -1.890625 C 13.75 -0.628906 11.929688 0 8.953125 0 C 5.691406 0 3.78125 -0.882812 3.21875 -2.65625 C 2.9375 -3.40625 2.796875 -4.59375 2.796875 -6.21875 Z M 2.796875 -45.109375 "/></g></g></g><g fill="#169d53" fill-opacity="1"><g transform="translate(753.839033, 165.319578)"><g><path d="M 15.171875 -10.34375 L 34.203125 -10.34375 C 35.734375 -10.34375 36.847656 -10.164062 37.546875 -9.8125 C 38.253906 -9.46875 38.722656 -8.921875 38.953125 -8.171875 C 39.191406 -7.429688 39.3125 -6.441406 39.3125 -5.203125 C 39.3125 -3.972656 39.191406 -2.984375 38.953125 -2.234375 C 38.722656 -1.492188 38.328125 -0.984375 37.765625 -0.703125 C 36.878906 -0.234375 35.664062 0 34.125 0 L 8.953125 0 C 5.691406 0 3.78125 -0.882812 3.21875 -2.65625 C 2.9375 -3.40625 2.796875 -4.59375 2.796875 -6.21875 L 2.796875 -45.109375 C 2.796875 -46.179688 2.828125 -46.984375 2.890625 -47.515625 C 2.960938 -48.054688 3.1875 -48.675781 3.5625 -49.375 C 4.21875 -50.632812 6.035156 -51.265625 9.015625 -51.265625 C 12.285156 -51.265625 14.222656 -50.398438 14.828125 -48.671875 C 15.054688 -47.878906 15.171875 -46.671875 15.171875 -45.046875 Z M 15.171875 -10.34375 "/></g></g></g></svg>